<mxfile host="app.diagrams.net" modified="2023-06-22T17:51:29.091Z" agent="Mozilla/5.0 (X11; Linux x86_64; rv:109.0) Gecko/20100101 Firefox/111.0" etag="Gk3gCwb_3fsN3tyPPA85" version="21.5.0" type="device">
  <diagram name="PÃ¡gina-1" id="2f2o-XNddZ72nW67jyk7">
    <mxGraphModel dx="1781" dy="560" grid="1" gridSize="10" guides="1" tooltips="1" connect="1" arrows="1" fold="1" page="1" pageScale="1" pageWidth="827" pageHeight="1169" math="0" shadow="0">
      <root>
        <mxCell id="0" />
        <mxCell id="1" parent="0" />
        <mxCell id="F4kQDFRtyyqjlnuMw0bs-2" value="tb_clientes" style="rounded=0;whiteSpace=wrap;html=1;" parent="1" vertex="1">
          <mxGeometry x="80" y="270" width="120" height="60" as="geometry" />
        </mxCell>
        <mxCell id="ZjNwS_tGUqbS9NZz3Lka-1" value="tb_produtos" style="rounded=0;whiteSpace=wrap;html=1;" parent="1" vertex="1">
          <mxGeometry x="640" y="507.5" width="120" height="60" as="geometry" />
        </mxCell>
        <mxCell id="ZjNwS_tGUqbS9NZz3Lka-2" value="tb_carrinho" style="rounded=0;whiteSpace=wrap;html=1;" parent="1" vertex="1">
          <mxGeometry x="640" y="270" width="120" height="60" as="geometry" />
        </mxCell>
        <mxCell id="ZjNwS_tGUqbS9NZz3Lka-3" value="tb_pedidos" style="rounded=0;whiteSpace=wrap;html=1;" parent="1" vertex="1">
          <mxGeometry x="354" y="270" width="120" height="60" as="geometry" />
        </mxCell>
        <mxCell id="ZjNwS_tGUqbS9NZz3Lka-4" value="tb_fornecedores" style="rounded=0;whiteSpace=wrap;html=1;" parent="1" vertex="1">
          <mxGeometry x="406" y="790" width="120" height="60" as="geometry" />
        </mxCell>
        <mxCell id="ZjNwS_tGUqbS9NZz3Lka-5" value="tb_recebimentos" style="rounded=0;whiteSpace=wrap;html=1;" parent="1" vertex="1">
          <mxGeometry x="406" y="587.5" width="120" height="60" as="geometry" />
        </mxCell>
        <mxCell id="ZjNwS_tGUqbS9NZz3Lka-7" value="" style="endArrow=none;html=1;rounded=0;exitX=1;exitY=0.5;exitDx=0;exitDy=0;entryX=0;entryY=0.5;entryDx=0;entryDy=0;" parent="1" source="F4kQDFRtyyqjlnuMw0bs-2" target="ZjNwS_tGUqbS9NZz3Lka-9" edge="1">
          <mxGeometry width="50" height="50" relative="1" as="geometry">
            <mxPoint x="460" y="510" as="sourcePoint" />
            <mxPoint x="510" y="460" as="targetPoint" />
          </mxGeometry>
        </mxCell>
        <mxCell id="ZjNwS_tGUqbS9NZz3Lka-8" value="" style="endArrow=none;html=1;rounded=0;exitX=1;exitY=0.5;exitDx=0;exitDy=0;entryX=0;entryY=0.5;entryDx=0;entryDy=0;" parent="1" source="ZjNwS_tGUqbS9NZz3Lka-3" target="ZjNwS_tGUqbS9NZz3Lka-12" edge="1">
          <mxGeometry width="50" height="50" relative="1" as="geometry">
            <mxPoint x="550" y="325" as="sourcePoint" />
            <mxPoint x="600" y="275" as="targetPoint" />
            <Array as="points" />
          </mxGeometry>
        </mxCell>
        <mxCell id="ZjNwS_tGUqbS9NZz3Lka-9" value="" style="rhombus;whiteSpace=wrap;html=1;" parent="1" vertex="1">
          <mxGeometry x="260" y="280" width="40" height="40" as="geometry" />
        </mxCell>
        <mxCell id="ZjNwS_tGUqbS9NZz3Lka-10" value="" style="endArrow=none;html=1;rounded=0;exitX=1;exitY=0.5;exitDx=0;exitDy=0;entryX=0;entryY=0.5;entryDx=0;entryDy=0;" parent="1" source="ZjNwS_tGUqbS9NZz3Lka-9" target="ZjNwS_tGUqbS9NZz3Lka-3" edge="1">
          <mxGeometry width="50" height="50" relative="1" as="geometry">
            <mxPoint x="320" y="350" as="sourcePoint" />
            <mxPoint x="330" y="300" as="targetPoint" />
          </mxGeometry>
        </mxCell>
        <mxCell id="ZjNwS_tGUqbS9NZz3Lka-12" value="" style="rhombus;whiteSpace=wrap;html=1;" parent="1" vertex="1">
          <mxGeometry x="540" y="280" width="40" height="40" as="geometry" />
        </mxCell>
        <mxCell id="ZjNwS_tGUqbS9NZz3Lka-13" value="" style="endArrow=none;html=1;rounded=0;exitX=1;exitY=0.5;exitDx=0;exitDy=0;entryX=0;entryY=0.5;entryDx=0;entryDy=0;" parent="1" source="ZjNwS_tGUqbS9NZz3Lka-12" target="ZjNwS_tGUqbS9NZz3Lka-2" edge="1">
          <mxGeometry width="50" height="50" relative="1" as="geometry">
            <mxPoint x="560" y="380" as="sourcePoint" />
            <mxPoint x="610" y="330" as="targetPoint" />
          </mxGeometry>
        </mxCell>
        <mxCell id="ZjNwS_tGUqbS9NZz3Lka-21" value="" style="endArrow=none;html=1;rounded=0;exitX=0.5;exitY=0;exitDx=0;exitDy=0;" parent="1" source="ZjNwS_tGUqbS9NZz3Lka-5" target="ZjNwS_tGUqbS9NZz3Lka-22" edge="1">
          <mxGeometry width="50" height="50" relative="1" as="geometry">
            <mxPoint x="486" y="537.5" as="sourcePoint" />
            <mxPoint x="526" y="537.5" as="targetPoint" />
            <Array as="points">
              <mxPoint x="466" y="537.5" />
            </Array>
          </mxGeometry>
        </mxCell>
        <mxCell id="ZjNwS_tGUqbS9NZz3Lka-22" value="" style="rhombus;whiteSpace=wrap;html=1;" parent="1" vertex="1">
          <mxGeometry x="540" y="520" width="40" height="35" as="geometry" />
        </mxCell>
        <mxCell id="ZjNwS_tGUqbS9NZz3Lka-23" value="" style="endArrow=none;html=1;rounded=0;exitX=1;exitY=0.5;exitDx=0;exitDy=0;entryX=0;entryY=0.5;entryDx=0;entryDy=0;" parent="1" source="ZjNwS_tGUqbS9NZz3Lka-22" target="ZjNwS_tGUqbS9NZz3Lka-1" edge="1">
          <mxGeometry width="50" height="50" relative="1" as="geometry">
            <mxPoint x="586" y="597.5" as="sourcePoint" />
            <mxPoint x="636" y="547.5" as="targetPoint" />
          </mxGeometry>
        </mxCell>
        <mxCell id="ZjNwS_tGUqbS9NZz3Lka-24" value="" style="endArrow=none;html=1;rounded=0;exitX=0.5;exitY=1;exitDx=0;exitDy=0;" parent="1" source="ZjNwS_tGUqbS9NZz3Lka-5" target="ZjNwS_tGUqbS9NZz3Lka-25" edge="1">
          <mxGeometry width="50" height="50" relative="1" as="geometry">
            <mxPoint x="496" y="737.5" as="sourcePoint" />
            <mxPoint x="546" y="697.5" as="targetPoint" />
            <Array as="points">
              <mxPoint x="466" y="717.5" />
            </Array>
          </mxGeometry>
        </mxCell>
        <mxCell id="ZjNwS_tGUqbS9NZz3Lka-25" value="" style="rhombus;whiteSpace=wrap;html=1;" parent="1" vertex="1">
          <mxGeometry x="446" y="700" width="40" height="40" as="geometry" />
        </mxCell>
        <mxCell id="ZjNwS_tGUqbS9NZz3Lka-26" value="" style="endArrow=none;html=1;rounded=0;exitX=0.5;exitY=1;exitDx=0;exitDy=0;entryX=0.5;entryY=0;entryDx=0;entryDy=0;" parent="1" source="ZjNwS_tGUqbS9NZz3Lka-25" target="ZjNwS_tGUqbS9NZz3Lka-4" edge="1">
          <mxGeometry width="50" height="50" relative="1" as="geometry">
            <mxPoint x="606" y="687.5" as="sourcePoint" />
            <mxPoint x="656" y="637.5" as="targetPoint" />
          </mxGeometry>
        </mxCell>
        <mxCell id="ZjNwS_tGUqbS9NZz3Lka-29" value="" style="endArrow=none;html=1;rounded=0;exitX=0;exitY=0;exitDx=0;exitDy=0;" parent="1" source="F4kQDFRtyyqjlnuMw0bs-2" edge="1">
          <mxGeometry width="50" height="50" relative="1" as="geometry">
            <mxPoint x="130" y="260" as="sourcePoint" />
            <mxPoint x="79.32352941176418" y="270" as="targetPoint" />
          </mxGeometry>
        </mxCell>
        <mxCell id="S-ryOOtSz0reST2wqUbo-1" value="" style="endArrow=oval;html=1;rounded=0;endFill=1;exitX=0;exitY=0;exitDx=0;exitDy=0;entryX=1;entryY=0.5;entryDx=0;entryDy=0;endSize=6;" parent="1" source="F4kQDFRtyyqjlnuMw0bs-2" target="S-ryOOtSz0reST2wqUbo-2" edge="1">
          <mxGeometry width="50" height="50" relative="1" as="geometry">
            <mxPoint x="155" y="210" as="sourcePoint" />
            <mxPoint x="80" y="230" as="targetPoint" />
          </mxGeometry>
        </mxCell>
        <mxCell id="S-ryOOtSz0reST2wqUbo-2" value="cod_cliente" style="text;html=1;strokeColor=none;fillColor=none;align=center;verticalAlign=middle;whiteSpace=wrap;rounded=0;" parent="1" vertex="1">
          <mxGeometry y="255" width="70" height="30" as="geometry" />
        </mxCell>
        <mxCell id="S-ryOOtSz0reST2wqUbo-3" value="" style="endArrow=oval;html=1;rounded=0;endFill=0;entryX=0.5;entryY=1;entryDx=0;entryDy=0;endSize=5;exitX=0.25;exitY=0;exitDx=0;exitDy=0;" parent="1" target="S-ryOOtSz0reST2wqUbo-5" edge="1" source="F4kQDFRtyyqjlnuMw0bs-2">
          <mxGeometry width="50" height="50" relative="1" as="geometry">
            <mxPoint x="110" y="270" as="sourcePoint" />
            <mxPoint x="110" y="190" as="targetPoint" />
          </mxGeometry>
        </mxCell>
        <mxCell id="S-ryOOtSz0reST2wqUbo-5" value="nome_cliente" style="text;html=1;strokeColor=none;fillColor=none;align=center;verticalAlign=middle;whiteSpace=wrap;rounded=0;" parent="1" vertex="1">
          <mxGeometry x="80" y="225" width="60" height="30" as="geometry" />
        </mxCell>
        <mxCell id="S-ryOOtSz0reST2wqUbo-7" value="" style="endArrow=oval;html=1;rounded=0;endFill=0;endSize=5;exitX=0.25;exitY=1;exitDx=0;exitDy=0;entryX=0.5;entryY=0;entryDx=0;entryDy=0;" parent="1" source="F4kQDFRtyyqjlnuMw0bs-2" target="S-ryOOtSz0reST2wqUbo-8" edge="1">
          <mxGeometry width="50" height="50" relative="1" as="geometry">
            <mxPoint x="170" y="270" as="sourcePoint" />
            <mxPoint x="140" y="230" as="targetPoint" />
            <Array as="points">
              <mxPoint x="90" y="360" />
            </Array>
          </mxGeometry>
        </mxCell>
        <mxCell id="S-ryOOtSz0reST2wqUbo-8" value="email_cliente" style="text;html=1;strokeColor=none;fillColor=none;align=center;verticalAlign=middle;whiteSpace=wrap;rounded=0;" parent="1" vertex="1">
          <mxGeometry x="60" y="405" width="60" height="30" as="geometry" />
        </mxCell>
        <mxCell id="S-ryOOtSz0reST2wqUbo-9" value="" style="endArrow=oval;html=1;rounded=0;endFill=0;endSize=5;exitX=0.75;exitY=0;exitDx=0;exitDy=0;entryX=0.5;entryY=1;entryDx=0;entryDy=0;" parent="1" source="F4kQDFRtyyqjlnuMw0bs-2" target="S-ryOOtSz0reST2wqUbo-10" edge="1">
          <mxGeometry width="50" height="50" relative="1" as="geometry">
            <mxPoint x="200" y="240" as="sourcePoint" />
            <mxPoint x="200" y="240" as="targetPoint" />
          </mxGeometry>
        </mxCell>
        <mxCell id="S-ryOOtSz0reST2wqUbo-10" value="&lt;div&gt;telefone_cliente&lt;/div&gt;" style="text;html=1;strokeColor=none;fillColor=none;align=center;verticalAlign=middle;whiteSpace=wrap;rounded=0;" parent="1" vertex="1">
          <mxGeometry x="140" y="195" width="60" height="30" as="geometry" />
        </mxCell>
        <mxCell id="S-ryOOtSz0reST2wqUbo-11" value="" style="endArrow=oval;html=1;rounded=0;endFill=1;endSize=7;strokeWidth=1;exitX=0;exitY=0;exitDx=0;exitDy=0;entryX=0.5;entryY=1;entryDx=0;entryDy=0;" parent="1" source="ZjNwS_tGUqbS9NZz3Lka-3" target="S-ryOOtSz0reST2wqUbo-12" edge="1">
          <mxGeometry width="50" height="50" relative="1" as="geometry">
            <mxPoint x="389" y="260" as="sourcePoint" />
            <mxPoint x="360" y="220" as="targetPoint" />
            <Array as="points">
              <mxPoint x="340" y="270" />
            </Array>
          </mxGeometry>
        </mxCell>
        <mxCell id="S-ryOOtSz0reST2wqUbo-12" value="cod_pedido" style="text;html=1;strokeColor=none;fillColor=none;align=center;verticalAlign=middle;whiteSpace=wrap;rounded=0;" parent="1" vertex="1">
          <mxGeometry x="310" y="210" width="60" height="30" as="geometry" />
        </mxCell>
        <mxCell id="S-ryOOtSz0reST2wqUbo-14" value="" style="endArrow=oval;html=1;rounded=0;endFill=0;endSize=7;exitX=0.25;exitY=0;exitDx=0;exitDy=0;entryX=0.5;entryY=1;entryDx=0;entryDy=0;" parent="1" source="ZjNwS_tGUqbS9NZz3Lka-3" target="S-ryOOtSz0reST2wqUbo-15" edge="1">
          <mxGeometry width="50" height="50" relative="1" as="geometry">
            <mxPoint x="395" y="250" as="sourcePoint" />
            <mxPoint x="390" y="190" as="targetPoint" />
          </mxGeometry>
        </mxCell>
        <mxCell id="S-ryOOtSz0reST2wqUbo-15" value="cod_cliente_fk" style="text;html=1;strokeColor=none;fillColor=none;align=center;verticalAlign=middle;whiteSpace=wrap;rounded=0;" parent="1" vertex="1">
          <mxGeometry x="354" y="180" width="60" height="30" as="geometry" />
        </mxCell>
        <mxCell id="S-ryOOtSz0reST2wqUbo-25" value="" style="endArrow=oval;html=1;rounded=0;endFill=0;endSize=5;exitX=0.5;exitY=0;exitDx=0;exitDy=0;entryX=0.5;entryY=1;entryDx=0;entryDy=0;" parent="1" source="ZjNwS_tGUqbS9NZz3Lka-3" target="Tl1EURoc7UcwLndOuP2t-24" edge="1">
          <mxGeometry width="50" height="50" relative="1" as="geometry">
            <mxPoint x="420" y="270" as="sourcePoint" />
            <mxPoint x="420" y="240" as="targetPoint" />
          </mxGeometry>
        </mxCell>
        <mxCell id="Tl1EURoc7UcwLndOuP2t-2" value="" style="endArrow=none;html=1;rounded=0;startArrow=oval;startFill=0;entryX=1;entryY=0.75;entryDx=0;entryDy=0;exitX=0;exitY=0.5;exitDx=0;exitDy=0;" parent="1" source="Tl1EURoc7UcwLndOuP2t-11" target="ZjNwS_tGUqbS9NZz3Lka-4" edge="1">
          <mxGeometry width="50" height="50" relative="1" as="geometry">
            <mxPoint x="634" y="920" as="sourcePoint" />
            <mxPoint x="504" y="780" as="targetPoint" />
          </mxGeometry>
        </mxCell>
        <mxCell id="Tl1EURoc7UcwLndOuP2t-4" value="" style="endArrow=none;html=1;rounded=0;startArrow=oval;startFill=0;entryX=0.75;entryY=1;entryDx=0;entryDy=0;exitX=0;exitY=0.5;exitDx=0;exitDy=0;" parent="1" source="Tl1EURoc7UcwLndOuP2t-9" target="ZjNwS_tGUqbS9NZz3Lka-4" edge="1">
          <mxGeometry width="50" height="50" relative="1" as="geometry">
            <mxPoint x="604" y="870" as="sourcePoint" />
            <mxPoint x="564" y="855" as="targetPoint" />
          </mxGeometry>
        </mxCell>
        <mxCell id="Tl1EURoc7UcwLndOuP2t-8" value="" style="endArrow=none;html=1;rounded=0;startArrow=oval;startFill=0;entryX=1;entryY=0.5;entryDx=0;entryDy=0;exitX=0;exitY=0.5;exitDx=0;exitDy=0;" parent="1" source="Tl1EURoc7UcwLndOuP2t-10" target="ZjNwS_tGUqbS9NZz3Lka-4" edge="1">
          <mxGeometry width="50" height="50" relative="1" as="geometry">
            <mxPoint x="604" y="820" as="sourcePoint" />
            <mxPoint x="604" y="895" as="targetPoint" />
          </mxGeometry>
        </mxCell>
        <mxCell id="Tl1EURoc7UcwLndOuP2t-9" value="nome" style="text;html=1;strokeColor=none;fillColor=none;align=center;verticalAlign=middle;whiteSpace=wrap;rounded=0;" parent="1" vertex="1">
          <mxGeometry x="560" y="840" width="60" height="30" as="geometry" />
        </mxCell>
        <mxCell id="Tl1EURoc7UcwLndOuP2t-10" value="email" style="text;html=1;strokeColor=none;fillColor=none;align=center;verticalAlign=middle;whiteSpace=wrap;rounded=0;" parent="1" vertex="1">
          <mxGeometry x="560" y="805" width="60" height="30" as="geometry" />
        </mxCell>
        <mxCell id="Tl1EURoc7UcwLndOuP2t-11" value="telefone" style="text;html=1;strokeColor=none;fillColor=none;align=center;verticalAlign=middle;whiteSpace=wrap;rounded=0;" parent="1" vertex="1">
          <mxGeometry x="560" y="821" width="60" height="30" as="geometry" />
        </mxCell>
        <mxCell id="Tl1EURoc7UcwLndOuP2t-20" value="cnpj" style="text;html=1;strokeColor=none;fillColor=none;align=center;verticalAlign=middle;whiteSpace=wrap;rounded=0;" parent="1" vertex="1">
          <mxGeometry x="560" y="790" width="60" height="30" as="geometry" />
        </mxCell>
        <mxCell id="Tl1EURoc7UcwLndOuP2t-24" value="data" style="text;html=1;strokeColor=none;fillColor=none;align=center;verticalAlign=middle;whiteSpace=wrap;rounded=0;" parent="1" vertex="1">
          <mxGeometry x="384" y="210" width="60" height="30" as="geometry" />
        </mxCell>
        <mxCell id="Tl1EURoc7UcwLndOuP2t-25" style="edgeStyle=none;rounded=0;orthogonalLoop=1;jettySize=auto;html=1;exitX=0.5;exitY=0;exitDx=0;exitDy=0;" parent="1" source="Tl1EURoc7UcwLndOuP2t-24" target="Tl1EURoc7UcwLndOuP2t-24" edge="1">
          <mxGeometry relative="1" as="geometry" />
        </mxCell>
        <mxCell id="Tl1EURoc7UcwLndOuP2t-28" value="valor_carrinho" style="text;html=1;strokeColor=none;fillColor=none;align=center;verticalAlign=middle;whiteSpace=wrap;rounded=0;" parent="1" vertex="1">
          <mxGeometry x="766" y="210" width="60" height="30" as="geometry" />
        </mxCell>
        <mxCell id="Tl1EURoc7UcwLndOuP2t-30" value="cod_pedido_fk" style="text;html=1;strokeColor=none;fillColor=none;align=center;verticalAlign=middle;whiteSpace=wrap;rounded=0;" parent="1" vertex="1">
          <mxGeometry x="730" y="170" width="60" height="30" as="geometry" />
        </mxCell>
        <mxCell id="Tl1EURoc7UcwLndOuP2t-31" value="cod_produto_fk" style="text;html=1;strokeColor=none;fillColor=none;align=center;verticalAlign=middle;whiteSpace=wrap;rounded=0;" parent="1" vertex="1">
          <mxGeometry x="640" y="190" width="60" height="30" as="geometry" />
        </mxCell>
        <mxCell id="Tl1EURoc7UcwLndOuP2t-32" value="cod_carrinho" style="text;html=1;strokeColor=none;fillColor=none;align=center;verticalAlign=middle;whiteSpace=wrap;rounded=0;" parent="1" vertex="1">
          <mxGeometry x="590" y="230" width="60" height="30" as="geometry" />
        </mxCell>
        <mxCell id="Tl1EURoc7UcwLndOuP2t-33" value="" style="endArrow=none;html=1;rounded=0;startArrow=oval;startFill=1;entryX=0;entryY=0;entryDx=0;entryDy=0;exitX=0.5;exitY=1;exitDx=0;exitDy=0;" parent="1" source="Tl1EURoc7UcwLndOuP2t-32" target="ZjNwS_tGUqbS9NZz3Lka-2" edge="1">
          <mxGeometry width="50" height="50" relative="1" as="geometry">
            <mxPoint x="570" y="220" as="sourcePoint" />
            <mxPoint x="440" y="200" as="targetPoint" />
            <Array as="points">
              <mxPoint x="620" y="270" />
            </Array>
          </mxGeometry>
        </mxCell>
        <mxCell id="Tl1EURoc7UcwLndOuP2t-35" value="" style="endArrow=none;html=1;rounded=0;startArrow=oval;startFill=0;entryX=0.25;entryY=0;entryDx=0;entryDy=0;exitX=0.5;exitY=1;exitDx=0;exitDy=0;" parent="1" source="Tl1EURoc7UcwLndOuP2t-31" target="ZjNwS_tGUqbS9NZz3Lka-2" edge="1">
          <mxGeometry width="50" height="50" relative="1" as="geometry">
            <mxPoint x="660" y="250" as="sourcePoint" />
            <mxPoint x="660" y="290" as="targetPoint" />
          </mxGeometry>
        </mxCell>
        <mxCell id="Tl1EURoc7UcwLndOuP2t-36" value="" style="endArrow=none;html=1;rounded=0;startArrow=oval;startFill=0;entryX=0.75;entryY=0;entryDx=0;entryDy=0;exitX=0.5;exitY=1;exitDx=0;exitDy=0;" parent="1" source="Tl1EURoc7UcwLndOuP2t-30" target="ZjNwS_tGUqbS9NZz3Lka-2" edge="1">
          <mxGeometry width="50" height="50" relative="1" as="geometry">
            <mxPoint x="670" y="260" as="sourcePoint" />
            <mxPoint x="670" y="300" as="targetPoint" />
            <Array as="points">
              <mxPoint x="730" y="200" />
            </Array>
          </mxGeometry>
        </mxCell>
        <mxCell id="Tl1EURoc7UcwLndOuP2t-37" value="" style="endArrow=none;html=1;rounded=0;startArrow=oval;startFill=0;entryX=1;entryY=0;entryDx=0;entryDy=0;exitX=0.25;exitY=1;exitDx=0;exitDy=0;" parent="1" source="Tl1EURoc7UcwLndOuP2t-28" target="ZjNwS_tGUqbS9NZz3Lka-2" edge="1">
          <mxGeometry width="50" height="50" relative="1" as="geometry">
            <mxPoint x="770" y="250" as="sourcePoint" />
            <mxPoint x="810" y="270" as="targetPoint" />
            <Array as="points">
              <mxPoint x="760" y="240" />
            </Array>
          </mxGeometry>
        </mxCell>
        <mxCell id="Tl1EURoc7UcwLndOuP2t-39" value="" style="endArrow=none;html=1;rounded=0;startArrow=oval;startFill=1;entryX=1;entryY=0;entryDx=0;entryDy=0;exitX=0;exitY=0.5;exitDx=0;exitDy=0;" parent="1" source="Tl1EURoc7UcwLndOuP2t-47" target="ZjNwS_tGUqbS9NZz3Lka-1" edge="1">
          <mxGeometry width="50" height="50" relative="1" as="geometry">
            <mxPoint x="866" y="497.5" as="sourcePoint" />
            <mxPoint x="796" y="497.5" as="targetPoint" />
          </mxGeometry>
        </mxCell>
        <mxCell id="Tl1EURoc7UcwLndOuP2t-43" value="" style="endArrow=none;html=1;rounded=0;startArrow=oval;startFill=0;entryX=1;entryY=0.25;entryDx=0;entryDy=0;exitX=0;exitY=0.5;exitDx=0;exitDy=0;" parent="1" source="Tl1EURoc7UcwLndOuP2t-48" target="ZjNwS_tGUqbS9NZz3Lka-1" edge="1">
          <mxGeometry width="50" height="50" relative="1" as="geometry">
            <mxPoint x="1006" y="567.5" as="sourcePoint" />
            <mxPoint x="936" y="567.5" as="targetPoint" />
          </mxGeometry>
        </mxCell>
        <mxCell id="Tl1EURoc7UcwLndOuP2t-44" value="" style="endArrow=none;html=1;rounded=0;startArrow=oval;startFill=0;entryX=1;entryY=0.5;entryDx=0;entryDy=0;exitX=0;exitY=0.5;exitDx=0;exitDy=0;" parent="1" source="Tl1EURoc7UcwLndOuP2t-52" target="ZjNwS_tGUqbS9NZz3Lka-1" edge="1">
          <mxGeometry width="50" height="50" relative="1" as="geometry">
            <mxPoint x="826" y="547.5" as="sourcePoint" />
            <mxPoint x="946" y="577.5" as="targetPoint" />
          </mxGeometry>
        </mxCell>
        <mxCell id="Tl1EURoc7UcwLndOuP2t-45" value="" style="endArrow=none;html=1;rounded=0;startArrow=oval;startFill=0;entryX=1;entryY=0.75;entryDx=0;entryDy=0;exitX=0;exitY=0.5;exitDx=0;exitDy=0;" parent="1" source="Tl1EURoc7UcwLndOuP2t-51" target="ZjNwS_tGUqbS9NZz3Lka-1" edge="1">
          <mxGeometry width="50" height="50" relative="1" as="geometry">
            <mxPoint x="1026" y="587.5" as="sourcePoint" />
            <mxPoint x="956" y="587.5" as="targetPoint" />
          </mxGeometry>
        </mxCell>
        <mxCell id="Tl1EURoc7UcwLndOuP2t-47" value="cod_produto" style="text;html=1;strokeColor=none;fillColor=none;align=center;verticalAlign=middle;whiteSpace=wrap;rounded=0;" parent="1" vertex="1">
          <mxGeometry x="826" y="490" width="90" height="30" as="geometry" />
        </mxCell>
        <mxCell id="Tl1EURoc7UcwLndOuP2t-48" value="nome_produto" style="text;html=1;strokeColor=none;fillColor=none;align=center;verticalAlign=middle;whiteSpace=wrap;rounded=0;" parent="1" vertex="1">
          <mxGeometry x="826" y="507.5" width="100" height="30" as="geometry" />
        </mxCell>
        <mxCell id="Tl1EURoc7UcwLndOuP2t-51" value="descricao_produto" style="text;html=1;strokeColor=none;fillColor=none;align=center;verticalAlign=middle;whiteSpace=wrap;rounded=0;" parent="1" vertex="1">
          <mxGeometry x="826" y="537.5" width="120" height="30" as="geometry" />
        </mxCell>
        <mxCell id="Tl1EURoc7UcwLndOuP2t-52" value="preco_produto" style="text;html=1;strokeColor=none;fillColor=none;align=center;verticalAlign=middle;whiteSpace=wrap;rounded=0;" parent="1" vertex="1">
          <mxGeometry x="826" y="522.5" width="90" height="30" as="geometry" />
        </mxCell>
        <mxCell id="Tl1EURoc7UcwLndOuP2t-54" value="data_receb" style="text;html=1;strokeColor=none;fillColor=none;align=center;verticalAlign=middle;whiteSpace=wrap;rounded=0;" parent="1" vertex="1">
          <mxGeometry x="296" y="602.5" width="70" height="30" as="geometry" />
        </mxCell>
        <mxCell id="Tl1EURoc7UcwLndOuP2t-56" value="cod_produto_fk" style="text;html=1;strokeColor=none;fillColor=none;align=center;verticalAlign=middle;whiteSpace=wrap;rounded=0;" parent="1" vertex="1">
          <mxGeometry x="328" y="557.5" width="80" height="30" as="geometry" />
        </mxCell>
        <mxCell id="Tl1EURoc7UcwLndOuP2t-57" value="quantidade_recebida" style="text;html=1;strokeColor=none;fillColor=none;align=center;verticalAlign=middle;whiteSpace=wrap;rounded=0;" parent="1" vertex="1">
          <mxGeometry x="266" y="647.5" width="130" height="30" as="geometry" />
        </mxCell>
        <mxCell id="Tl1EURoc7UcwLndOuP2t-58" value="" style="endArrow=none;html=1;rounded=0;startArrow=oval;startFill=0;entryX=0;entryY=0;entryDx=0;entryDy=0;exitX=0.5;exitY=1;exitDx=0;exitDy=0;" parent="1" source="Tl1EURoc7UcwLndOuP2t-56" target="ZjNwS_tGUqbS9NZz3Lka-5" edge="1">
          <mxGeometry width="50" height="50" relative="1" as="geometry">
            <mxPoint x="466" y="507.5" as="sourcePoint" />
            <mxPoint x="726" y="537.5" as="targetPoint" />
          </mxGeometry>
        </mxCell>
        <mxCell id="Tl1EURoc7UcwLndOuP2t-59" value="" style="endArrow=none;html=1;rounded=0;startArrow=oval;startFill=0;entryX=0;entryY=0.5;entryDx=0;entryDy=0;exitX=1;exitY=0.5;exitDx=0;exitDy=0;" parent="1" source="Tl1EURoc7UcwLndOuP2t-54" target="ZjNwS_tGUqbS9NZz3Lka-5" edge="1">
          <mxGeometry width="50" height="50" relative="1" as="geometry">
            <mxPoint x="371" y="617.5" as="sourcePoint" />
            <mxPoint x="726" y="537.5" as="targetPoint" />
          </mxGeometry>
        </mxCell>
        <mxCell id="Tl1EURoc7UcwLndOuP2t-60" value="" style="endArrow=none;html=1;rounded=0;startArrow=oval;startFill=0;entryX=0;entryY=1;entryDx=0;entryDy=0;exitX=0.5;exitY=0;exitDx=0;exitDy=0;" parent="1" source="Tl1EURoc7UcwLndOuP2t-57" target="ZjNwS_tGUqbS9NZz3Lka-5" edge="1">
          <mxGeometry width="50" height="50" relative="1" as="geometry">
            <mxPoint x="686" y="597.5" as="sourcePoint" />
            <mxPoint x="736" y="547.5" as="targetPoint" />
          </mxGeometry>
        </mxCell>
        <mxCell id="Tl1EURoc7UcwLndOuP2t-61" value="1,n" style="text;html=1;strokeColor=none;fillColor=none;align=center;verticalAlign=middle;whiteSpace=wrap;rounded=0;" parent="1" vertex="1">
          <mxGeometry x="400" y="760" width="60" height="30" as="geometry" />
        </mxCell>
        <mxCell id="Tl1EURoc7UcwLndOuP2t-63" value="1,n" style="text;html=1;strokeColor=none;fillColor=none;align=center;verticalAlign=middle;whiteSpace=wrap;rounded=0;" parent="1" vertex="1">
          <mxGeometry x="466" y="647.5" width="60" height="30" as="geometry" />
        </mxCell>
        <mxCell id="Tl1EURoc7UcwLndOuP2t-65" value="1,n" style="text;html=1;strokeColor=none;fillColor=none;align=center;verticalAlign=middle;whiteSpace=wrap;rounded=0;" parent="1" vertex="1">
          <mxGeometry x="595" y="545" width="60" height="30" as="geometry" />
        </mxCell>
        <mxCell id="Tl1EURoc7UcwLndOuP2t-66" value="1,n" style="text;html=1;strokeColor=none;fillColor=none;align=center;verticalAlign=middle;whiteSpace=wrap;rounded=0;" parent="1" vertex="1">
          <mxGeometry x="310" y="300" width="60" height="30" as="geometry" />
        </mxCell>
        <mxCell id="Tl1EURoc7UcwLndOuP2t-67" value="1,1" style="text;html=1;strokeColor=none;fillColor=none;align=center;verticalAlign=middle;whiteSpace=wrap;rounded=0;" parent="1" vertex="1">
          <mxGeometry x="183" y="307" width="60" height="30" as="geometry" />
        </mxCell>
        <mxCell id="Tl1EURoc7UcwLndOuP2t-68" value="1,n" style="text;html=1;strokeColor=none;fillColor=none;align=center;verticalAlign=middle;whiteSpace=wrap;rounded=0;" parent="1" vertex="1">
          <mxGeometry x="600" y="300" width="60" height="30" as="geometry" />
        </mxCell>
        <mxCell id="Tl1EURoc7UcwLndOuP2t-69" value="1,1" style="text;html=1;strokeColor=none;fillColor=none;align=center;verticalAlign=middle;whiteSpace=wrap;rounded=0;" parent="1" vertex="1">
          <mxGeometry x="460" y="300" width="60" height="30" as="geometry" />
        </mxCell>
        <mxCell id="9uezJI6PURcAkv06gFwP-1" value="" style="endArrow=none;html=1;rounded=0;exitX=0.5;exitY=0;exitDx=0;exitDy=0;" parent="1" source="9uezJI6PURcAkv06gFwP-15" target="ZjNwS_tGUqbS9NZz3Lka-2" edge="1">
          <mxGeometry width="50" height="50" relative="1" as="geometry">
            <mxPoint x="530" y="490" as="sourcePoint" />
            <mxPoint x="580" y="440" as="targetPoint" />
          </mxGeometry>
        </mxCell>
        <mxCell id="9uezJI6PURcAkv06gFwP-2" value="ativo_cliente" style="text;html=1;strokeColor=none;fillColor=none;align=center;verticalAlign=middle;whiteSpace=wrap;rounded=0;" parent="1" vertex="1">
          <mxGeometry x="5" y="350" width="60" height="30" as="geometry" />
        </mxCell>
        <mxCell id="9uezJI6PURcAkv06gFwP-3" value="" style="endArrow=none;html=1;rounded=0;startArrow=oval;startFill=0;exitX=0.5;exitY=0;exitDx=0;exitDy=0;entryX=0;entryY=1;entryDx=0;entryDy=0;" parent="1" source="9uezJI6PURcAkv06gFwP-2" target="F4kQDFRtyyqjlnuMw0bs-2" edge="1">
          <mxGeometry width="50" height="50" relative="1" as="geometry">
            <mxPoint x="590" y="560" as="sourcePoint" />
            <mxPoint x="110" y="340" as="targetPoint" />
            <Array as="points" />
          </mxGeometry>
        </mxCell>
        <mxCell id="9uezJI6PURcAkv06gFwP-4" value="tipo_cliente" style="text;html=1;strokeColor=none;fillColor=none;align=center;verticalAlign=middle;whiteSpace=wrap;rounded=0;" parent="1" vertex="1">
          <mxGeometry x="110" y="370" width="60" height="30" as="geometry" />
        </mxCell>
        <mxCell id="9uezJI6PURcAkv06gFwP-7" value="" style="endArrow=none;html=1;rounded=0;startArrow=oval;startFill=0;exitX=0.5;exitY=0;exitDx=0;exitDy=0;entryX=0.5;entryY=1;entryDx=0;entryDy=0;" parent="1" source="9uezJI6PURcAkv06gFwP-4" target="F4kQDFRtyyqjlnuMw0bs-2" edge="1">
          <mxGeometry width="50" height="50" relative="1" as="geometry">
            <mxPoint x="175" y="390" as="sourcePoint" />
            <mxPoint x="225" y="340" as="targetPoint" />
          </mxGeometry>
        </mxCell>
        <mxCell id="9uezJI6PURcAkv06gFwP-8" value="qtd_carrinho" style="text;html=1;strokeColor=none;fillColor=none;align=center;verticalAlign=middle;whiteSpace=wrap;rounded=0;" parent="1" vertex="1">
          <mxGeometry x="780" y="285" width="80" height="30" as="geometry" />
        </mxCell>
        <mxCell id="9uezJI6PURcAkv06gFwP-9" value="" style="endArrow=none;html=1;rounded=0;startArrow=oval;startFill=0;entryX=1;entryY=0.5;entryDx=0;entryDy=0;exitX=0;exitY=0.5;exitDx=0;exitDy=0;" parent="1" source="9uezJI6PURcAkv06gFwP-8" target="ZjNwS_tGUqbS9NZz3Lka-2" edge="1">
          <mxGeometry width="50" height="50" relative="1" as="geometry">
            <mxPoint x="750" y="360" as="sourcePoint" />
            <mxPoint x="800" y="310" as="targetPoint" />
          </mxGeometry>
        </mxCell>
        <mxCell id="9uezJI6PURcAkv06gFwP-11" value="" style="endArrow=none;html=1;rounded=0;startArrow=oval;startFill=0;entryX=0.75;entryY=0;entryDx=0;entryDy=0;exitX=0;exitY=0.5;exitDx=0;exitDy=0;" parent="1" source="9uezJI6PURcAkv06gFwP-12" target="ZjNwS_tGUqbS9NZz3Lka-1" edge="1">
          <mxGeometry width="50" height="50" relative="1" as="geometry">
            <mxPoint x="830" y="480" as="sourcePoint" />
            <mxPoint x="730" y="510" as="targetPoint" />
            <Array as="points">
              <mxPoint x="730" y="480" />
            </Array>
          </mxGeometry>
        </mxCell>
        <mxCell id="9uezJI6PURcAkv06gFwP-12" value="ativo_produto" style="text;html=1;strokeColor=none;fillColor=none;align=center;verticalAlign=middle;whiteSpace=wrap;rounded=0;" parent="1" vertex="1">
          <mxGeometry x="730" y="450" width="90" height="30" as="geometry" />
        </mxCell>
        <mxCell id="9uezJI6PURcAkv06gFwP-13" value="1,n" style="text;html=1;strokeColor=none;fillColor=none;align=center;verticalAlign=middle;whiteSpace=wrap;rounded=0;" parent="1" vertex="1">
          <mxGeometry x="622" y="326" width="60" height="30" as="geometry" />
        </mxCell>
        <mxCell id="9uezJI6PURcAkv06gFwP-14" value="1,1" style="text;html=1;strokeColor=none;fillColor=none;align=center;verticalAlign=middle;whiteSpace=wrap;rounded=0;" parent="1" vertex="1">
          <mxGeometry x="629" y="484" width="60" height="32.5" as="geometry" />
        </mxCell>
        <mxCell id="9uezJI6PURcAkv06gFwP-15" value="" style="rhombus;whiteSpace=wrap;html=1;" parent="1" vertex="1">
          <mxGeometry x="680" y="390" width="40" height="45" as="geometry" />
        </mxCell>
        <mxCell id="9uezJI6PURcAkv06gFwP-17" value="" style="endArrow=none;html=1;rounded=0;entryX=0.5;entryY=1;entryDx=0;entryDy=0;exitX=0.5;exitY=0;exitDx=0;exitDy=0;" parent="1" source="ZjNwS_tGUqbS9NZz3Lka-1" target="9uezJI6PURcAkv06gFwP-15" edge="1">
          <mxGeometry width="50" height="50" relative="1" as="geometry">
            <mxPoint x="590" y="530" as="sourcePoint" />
            <mxPoint x="640" y="480" as="targetPoint" />
          </mxGeometry>
        </mxCell>
        <mxCell id="vsyQUAJhut0UXk86lRQu-1" value="ativo" style="text;html=1;strokeColor=none;fillColor=none;align=center;verticalAlign=middle;whiteSpace=wrap;rounded=0;" parent="1" vertex="1">
          <mxGeometry x="560" y="775" width="60" height="30" as="geometry" />
        </mxCell>
        <mxCell id="vsyQUAJhut0UXk86lRQu-3" value="" style="endArrow=none;html=1;rounded=0;startArrow=oval;startFill=0;entryX=1;entryY=0;entryDx=0;entryDy=0;exitX=0;exitY=0.5;exitDx=0;exitDy=0;" parent="1" source="vsyQUAJhut0UXk86lRQu-1" target="ZjNwS_tGUqbS9NZz3Lka-4" edge="1">
          <mxGeometry width="50" height="50" relative="1" as="geometry">
            <mxPoint x="618" y="762.5" as="sourcePoint" />
            <mxPoint x="518" y="620.5" as="targetPoint" />
            <Array as="points" />
          </mxGeometry>
        </mxCell>
        <mxCell id="HZ6WcUXE7XcEqX8iyMWe-2" value="" style="endArrow=none;html=1;rounded=0;startArrow=oval;startFill=0;entryX=1;entryY=0.25;entryDx=0;entryDy=0;exitX=0;exitY=1;exitDx=0;exitDy=0;" parent="1" source="vsyQUAJhut0UXk86lRQu-1" target="ZjNwS_tGUqbS9NZz3Lka-4" edge="1">
          <mxGeometry width="50" height="50" relative="1" as="geometry">
            <mxPoint x="568" y="732.5" as="sourcePoint" />
            <mxPoint x="298" y="702.5" as="targetPoint" />
          </mxGeometry>
        </mxCell>
        <mxCell id="HZ6WcUXE7XcEqX8iyMWe-3" value="" style="endArrow=none;html=1;rounded=0;startArrow=oval;startFill=1;entryX=0.75;entryY=0;entryDx=0;entryDy=0;exitX=0;exitY=0.75;exitDx=0;exitDy=0;" parent="1" source="HZ6WcUXE7XcEqX8iyMWe-6" target="ZjNwS_tGUqbS9NZz3Lka-4" edge="1">
          <mxGeometry width="50" height="50" relative="1" as="geometry">
            <mxPoint x="608" y="762.5" as="sourcePoint" />
            <mxPoint x="298" y="702.5" as="targetPoint" />
            <Array as="points" />
          </mxGeometry>
        </mxCell>
        <mxCell id="HZ6WcUXE7XcEqX8iyMWe-6" value="cod_forne" style="text;html=1;strokeColor=none;fillColor=none;align=center;verticalAlign=middle;whiteSpace=wrap;rounded=0;" parent="1" vertex="1">
          <mxGeometry x="560" y="745" width="60" height="30" as="geometry" />
        </mxCell>
        <mxCell id="HZ6WcUXE7XcEqX8iyMWe-8" value="1,1" style="text;html=1;strokeColor=none;fillColor=none;align=center;verticalAlign=middle;whiteSpace=wrap;rounded=0;" parent="1" vertex="1">
          <mxGeometry x="466" y="557.5" width="60" height="30" as="geometry" />
        </mxCell>
        <mxCell id="fmxYldBwVqD4av5W19d3-1" style="edgeStyle=orthogonalEdgeStyle;rounded=0;orthogonalLoop=1;jettySize=auto;html=1;exitX=0.5;exitY=1;exitDx=0;exitDy=0;" parent="1" source="HZ6WcUXE7XcEqX8iyMWe-8" target="HZ6WcUXE7XcEqX8iyMWe-8" edge="1">
          <mxGeometry relative="1" as="geometry" />
        </mxCell>
        <mxCell id="fmxYldBwVqD4av5W19d3-3" value="tb_cidades" style="rounded=0;whiteSpace=wrap;html=1;" parent="1" vertex="1">
          <mxGeometry x="110" y="490" width="120" height="60" as="geometry" />
        </mxCell>
        <mxCell id="fmxYldBwVqD4av5W19d3-5" value="" style="endArrow=none;html=1;rounded=0;startArrow=oval;startFill=1;entryX=1;entryY=0.25;entryDx=0;entryDy=0;exitX=0;exitY=0.5;exitDx=0;exitDy=0;" parent="1" source="fmxYldBwVqD4av5W19d3-6" target="fmxYldBwVqD4av5W19d3-3" edge="1">
          <mxGeometry width="50" height="50" relative="1" as="geometry">
            <mxPoint x="290" y="535" as="sourcePoint" />
            <mxPoint x="270" y="535" as="targetPoint" />
          </mxGeometry>
        </mxCell>
        <mxCell id="fmxYldBwVqD4av5W19d3-6" value="cod_cid" style="text;html=1;strokeColor=none;fillColor=none;align=center;verticalAlign=middle;whiteSpace=wrap;rounded=0;" parent="1" vertex="1">
          <mxGeometry x="250" y="490" width="60" height="30" as="geometry" />
        </mxCell>
        <mxCell id="fmxYldBwVqD4av5W19d3-7" value="" style="endArrow=none;html=1;rounded=0;exitX=0.5;exitY=0;exitDx=0;exitDy=0;entryX=0.5;entryY=1;entryDx=0;entryDy=0;" parent="1" source="fmxYldBwVqD4av5W19d3-3" target="fmxYldBwVqD4av5W19d3-8" edge="1">
          <mxGeometry width="50" height="50" relative="1" as="geometry">
            <mxPoint x="470" y="477.5" as="sourcePoint" />
            <mxPoint x="170" y="482.5" as="targetPoint" />
          </mxGeometry>
        </mxCell>
        <mxCell id="fmxYldBwVqD4av5W19d3-8" value="" style="rhombus;whiteSpace=wrap;html=1;" parent="1" vertex="1">
          <mxGeometry x="150" y="410" width="40" height="40" as="geometry" />
        </mxCell>
        <mxCell id="fmxYldBwVqD4av5W19d3-9" value="" style="endArrow=none;html=1;rounded=0;exitX=0.5;exitY=0;exitDx=0;exitDy=0;entryX=0.75;entryY=1;entryDx=0;entryDy=0;" parent="1" source="fmxYldBwVqD4av5W19d3-8" target="F4kQDFRtyyqjlnuMw0bs-2" edge="1">
          <mxGeometry width="50" height="50" relative="1" as="geometry">
            <mxPoint x="470" y="480" as="sourcePoint" />
            <mxPoint x="280" y="435" as="targetPoint" />
            <Array as="points" />
          </mxGeometry>
        </mxCell>
        <mxCell id="fmxYldBwVqD4av5W19d3-12" value="&lt;div&gt;cod_cid_fk&lt;/div&gt;" style="text;html=1;strokeColor=none;fillColor=none;align=center;verticalAlign=middle;whiteSpace=wrap;rounded=0;" parent="1" vertex="1">
          <mxGeometry x="-10" y="300" width="70" height="30" as="geometry" />
        </mxCell>
        <mxCell id="fmxYldBwVqD4av5W19d3-15" value="" style="endArrow=none;html=1;rounded=0;startArrow=oval;startFill=0;entryX=1;entryY=1;entryDx=0;entryDy=0;exitX=0;exitY=0.5;exitDx=0;exitDy=0;" parent="1" source="fmxYldBwVqD4av5W19d3-16" target="ZjNwS_tGUqbS9NZz3Lka-1" edge="1">
          <mxGeometry width="50" height="50" relative="1" as="geometry">
            <mxPoint x="760" y="590" as="sourcePoint" />
            <mxPoint x="490" y="400" as="targetPoint" />
          </mxGeometry>
        </mxCell>
        <mxCell id="fmxYldBwVqD4av5W19d3-16" value="foto_produto" style="text;html=1;strokeColor=none;fillColor=none;align=center;verticalAlign=middle;whiteSpace=wrap;rounded=0;" parent="1" vertex="1">
          <mxGeometry x="826" y="557.5" width="77" height="30" as="geometry" />
        </mxCell>
        <mxCell id="fmxYldBwVqD4av5W19d3-21" value="tb_categorias" style="rounded=0;whiteSpace=wrap;html=1;" parent="1" vertex="1">
          <mxGeometry x="640" y="715" width="120" height="60" as="geometry" />
        </mxCell>
        <mxCell id="fmxYldBwVqD4av5W19d3-29" value="" style="endArrow=oval;html=1;rounded=0;exitX=1;exitY=0.5;exitDx=0;exitDy=0;endFill=0;entryX=0;entryY=0.5;entryDx=0;entryDy=0;" parent="1" source="fmxYldBwVqD4av5W19d3-21" target="fmxYldBwVqD4av5W19d3-34" edge="1">
          <mxGeometry width="50" height="50" relative="1" as="geometry">
            <mxPoint x="800" y="745" as="sourcePoint" />
            <mxPoint x="790" y="760" as="targetPoint" />
          </mxGeometry>
        </mxCell>
        <mxCell id="fmxYldBwVqD4av5W19d3-31" value="" style="endArrow=oval;html=1;rounded=0;endFill=1;exitX=1;exitY=0.25;exitDx=0;exitDy=0;entryX=0;entryY=0.5;entryDx=0;entryDy=0;" parent="1" source="fmxYldBwVqD4av5W19d3-21" target="fmxYldBwVqD4av5W19d3-32" edge="1">
          <mxGeometry width="50" height="50" relative="1" as="geometry">
            <mxPoint x="730" y="675" as="sourcePoint" />
            <mxPoint x="830" y="715" as="targetPoint" />
          </mxGeometry>
        </mxCell>
        <mxCell id="fmxYldBwVqD4av5W19d3-32" value="cod_categoria" style="text;html=1;strokeColor=none;fillColor=none;align=center;verticalAlign=middle;whiteSpace=wrap;rounded=0;" parent="1" vertex="1">
          <mxGeometry x="785" y="715" width="90" height="30" as="geometry" />
        </mxCell>
        <mxCell id="fmxYldBwVqD4av5W19d3-34" value="nome_categoria" style="text;html=1;strokeColor=none;fillColor=none;align=center;verticalAlign=middle;whiteSpace=wrap;rounded=0;" parent="1" vertex="1">
          <mxGeometry x="785" y="727.5" width="100" height="35" as="geometry" />
        </mxCell>
        <mxCell id="fmxYldBwVqD4av5W19d3-35" value="" style="endArrow=none;html=1;rounded=0;exitX=0.5;exitY=0;exitDx=0;exitDy=0;entryX=0.5;entryY=1;entryDx=0;entryDy=0;" parent="1" source="fmxYldBwVqD4av5W19d3-21" target="fmxYldBwVqD4av5W19d3-36" edge="1">
          <mxGeometry width="50" height="50" relative="1" as="geometry">
            <mxPoint x="730" y="640" as="sourcePoint" />
            <mxPoint x="700" y="680" as="targetPoint" />
          </mxGeometry>
        </mxCell>
        <mxCell id="fmxYldBwVqD4av5W19d3-36" value="" style="rhombus;whiteSpace=wrap;html=1;" parent="1" vertex="1">
          <mxGeometry x="680" y="620" width="40" height="40" as="geometry" />
        </mxCell>
        <mxCell id="fmxYldBwVqD4av5W19d3-37" value="" style="endArrow=none;html=1;rounded=0;exitX=0.5;exitY=0;exitDx=0;exitDy=0;entryX=0.5;entryY=1;entryDx=0;entryDy=0;" parent="1" source="fmxYldBwVqD4av5W19d3-36" target="ZjNwS_tGUqbS9NZz3Lka-1" edge="1">
          <mxGeometry width="50" height="50" relative="1" as="geometry">
            <mxPoint x="730" y="640" as="sourcePoint" />
            <mxPoint x="780" y="590" as="targetPoint" />
          </mxGeometry>
        </mxCell>
        <mxCell id="fmxYldBwVqD4av5W19d3-38" value="" style="endArrow=oval;html=1;rounded=0;endFill=0;exitX=1;exitY=0;exitDx=0;exitDy=0;entryX=0;entryY=0.5;entryDx=0;entryDy=0;" parent="1" source="F4kQDFRtyyqjlnuMw0bs-2" target="fmxYldBwVqD4av5W19d3-39" edge="1">
          <mxGeometry width="50" height="50" relative="1" as="geometry">
            <mxPoint x="216" y="380" as="sourcePoint" />
            <mxPoint x="240" y="190" as="targetPoint" />
            <Array as="points">
              <mxPoint x="200" y="240" />
            </Array>
          </mxGeometry>
        </mxCell>
        <mxCell id="fmxYldBwVqD4av5W19d3-39" value="senha_cliente" style="text;html=1;strokeColor=none;fillColor=none;align=center;verticalAlign=middle;whiteSpace=wrap;rounded=0;" parent="1" vertex="1">
          <mxGeometry x="212" y="225" width="84" height="30" as="geometry" />
        </mxCell>
        <mxCell id="EugOOFMT5J3IFzMl5P8F-1" value="&lt;div&gt;nome_cid&lt;/div&gt;" style="text;html=1;strokeColor=none;fillColor=none;align=center;verticalAlign=middle;whiteSpace=wrap;rounded=0;" vertex="1" parent="1">
          <mxGeometry x="250" y="522.5" width="60" height="35" as="geometry" />
        </mxCell>
        <mxCell id="EugOOFMT5J3IFzMl5P8F-2" value="" style="endArrow=oval;html=1;rounded=0;exitX=1;exitY=0.75;exitDx=0;exitDy=0;entryX=0;entryY=0.5;entryDx=0;entryDy=0;endFill=0;" edge="1" parent="1" source="fmxYldBwVqD4av5W19d3-3" target="EugOOFMT5J3IFzMl5P8F-1">
          <mxGeometry width="50" height="50" relative="1" as="geometry">
            <mxPoint x="470" y="500" as="sourcePoint" />
            <mxPoint x="520" y="450" as="targetPoint" />
          </mxGeometry>
        </mxCell>
        <mxCell id="EugOOFMT5J3IFzMl5P8F-3" value="0,n" style="text;html=1;strokeColor=none;fillColor=none;align=center;verticalAlign=middle;whiteSpace=wrap;rounded=0;" vertex="1" parent="1">
          <mxGeometry x="160" y="325" width="60" height="30" as="geometry" />
        </mxCell>
        <mxCell id="EugOOFMT5J3IFzMl5P8F-4" value="1,1" style="text;html=1;strokeColor=none;fillColor=none;align=center;verticalAlign=middle;whiteSpace=wrap;rounded=0;" vertex="1" parent="1">
          <mxGeometry x="190" y="470" width="60" height="30" as="geometry" />
        </mxCell>
        <mxCell id="EugOOFMT5J3IFzMl5P8F-6" value="&lt;div&gt;estado_cid&lt;/div&gt;" style="text;html=1;strokeColor=none;fillColor=none;align=center;verticalAlign=middle;whiteSpace=wrap;rounded=0;" vertex="1" parent="1">
          <mxGeometry x="250" y="507.5" width="70" height="30" as="geometry" />
        </mxCell>
        <mxCell id="EugOOFMT5J3IFzMl5P8F-8" value="" style="endArrow=oval;html=1;rounded=0;exitX=1;exitY=0.5;exitDx=0;exitDy=0;entryX=0;entryY=0.5;entryDx=0;entryDy=0;endFill=0;" edge="1" parent="1" source="fmxYldBwVqD4av5W19d3-3" target="EugOOFMT5J3IFzMl5P8F-6">
          <mxGeometry width="50" height="50" relative="1" as="geometry">
            <mxPoint x="250" y="555" as="sourcePoint" />
            <mxPoint x="270" y="555" as="targetPoint" />
          </mxGeometry>
        </mxCell>
        <mxCell id="EugOOFMT5J3IFzMl5P8F-9" value="1,n" style="text;html=1;strokeColor=none;fillColor=none;align=center;verticalAlign=middle;whiteSpace=wrap;rounded=0;" vertex="1" parent="1">
          <mxGeometry x="624" y="564.5" width="60" height="30" as="geometry" />
        </mxCell>
        <mxCell id="EugOOFMT5J3IFzMl5P8F-10" value="1,1" style="text;html=1;strokeColor=none;fillColor=none;align=center;verticalAlign=middle;whiteSpace=wrap;rounded=0;" vertex="1" parent="1">
          <mxGeometry x="623" y="691" width="60" height="30" as="geometry" />
        </mxCell>
        <mxCell id="EugOOFMT5J3IFzMl5P8F-12" value="" style="endArrow=none;html=1;rounded=0;startArrow=oval;startFill=0;entryX=0.25;entryY=0;entryDx=0;entryDy=0;exitX=0.5;exitY=1;exitDx=0;exitDy=0;" edge="1" parent="1" source="EugOOFMT5J3IFzMl5P8F-13" target="ZjNwS_tGUqbS9NZz3Lka-5">
          <mxGeometry width="50" height="50" relative="1" as="geometry">
            <mxPoint x="430" y="530" as="sourcePoint" />
            <mxPoint x="354" y="717" as="targetPoint" />
            <Array as="points" />
          </mxGeometry>
        </mxCell>
        <mxCell id="EugOOFMT5J3IFzMl5P8F-13" value="cod_forne_fk" style="text;html=1;strokeColor=none;fillColor=none;align=center;verticalAlign=middle;whiteSpace=wrap;rounded=0;" vertex="1" parent="1">
          <mxGeometry x="406" y="515" width="60" height="30" as="geometry" />
        </mxCell>
        <mxCell id="EugOOFMT5J3IFzMl5P8F-14" value="" style="endArrow=oval;html=1;rounded=0;endFill=0;entryX=1;entryY=0.5;entryDx=0;entryDy=0;endSize=5;exitX=0;exitY=0.75;exitDx=0;exitDy=0;" edge="1" parent="1" source="F4kQDFRtyyqjlnuMw0bs-2" target="fmxYldBwVqD4av5W19d3-12">
          <mxGeometry width="50" height="50" relative="1" as="geometry">
            <mxPoint x="80" y="440" as="sourcePoint" />
            <mxPoint x="80" y="370" as="targetPoint" />
          </mxGeometry>
        </mxCell>
        <mxCell id="EugOOFMT5J3IFzMl5P8F-15" value="cod_cid_fk" style="text;html=1;strokeColor=none;fillColor=none;align=center;verticalAlign=middle;whiteSpace=wrap;rounded=0;" vertex="1" parent="1">
          <mxGeometry x="466" y="890" width="60" height="30" as="geometry" />
        </mxCell>
        <mxCell id="EugOOFMT5J3IFzMl5P8F-16" value="" style="endArrow=oval;html=1;rounded=0;exitX=0.75;exitY=1;exitDx=0;exitDy=0;entryX=0.5;entryY=0;entryDx=0;entryDy=0;endFill=0;" edge="1" parent="1" source="ZjNwS_tGUqbS9NZz3Lka-4" target="EugOOFMT5J3IFzMl5P8F-15">
          <mxGeometry width="50" height="50" relative="1" as="geometry">
            <mxPoint x="480" y="890" as="sourcePoint" />
            <mxPoint x="500" y="880" as="targetPoint" />
          </mxGeometry>
        </mxCell>
        <mxCell id="EugOOFMT5J3IFzMl5P8F-17" value="rua" style="text;html=1;strokeColor=none;fillColor=none;align=center;verticalAlign=middle;whiteSpace=wrap;rounded=0;" vertex="1" parent="1">
          <mxGeometry x="372" y="745" width="34" height="30" as="geometry" />
        </mxCell>
        <mxCell id="EugOOFMT5J3IFzMl5P8F-18" value="complemento" style="text;html=1;strokeColor=none;fillColor=none;align=center;verticalAlign=middle;whiteSpace=wrap;rounded=0;" vertex="1" parent="1">
          <mxGeometry x="326" y="870" width="80" height="30" as="geometry" />
        </mxCell>
        <mxCell id="EugOOFMT5J3IFzMl5P8F-19" value="bairro" style="text;html=1;strokeColor=none;fillColor=none;align=center;verticalAlign=middle;whiteSpace=wrap;rounded=0;" vertex="1" parent="1">
          <mxGeometry x="436" y="870" width="60" height="30" as="geometry" />
        </mxCell>
        <mxCell id="EugOOFMT5J3IFzMl5P8F-21" value="numero" style="text;html=1;strokeColor=none;fillColor=none;align=center;verticalAlign=middle;whiteSpace=wrap;rounded=0;" vertex="1" parent="1">
          <mxGeometry x="406" y="910" width="60" height="30" as="geometry" />
        </mxCell>
        <mxCell id="EugOOFMT5J3IFzMl5P8F-22" value="" style="endArrow=none;html=1;rounded=0;exitX=0.5;exitY=0;exitDx=0;exitDy=0;entryX=0.25;entryY=1;entryDx=0;entryDy=0;startArrow=oval;startFill=0;" edge="1" parent="1" source="EugOOFMT5J3IFzMl5P8F-21" target="ZjNwS_tGUqbS9NZz3Lka-4">
          <mxGeometry width="50" height="50" relative="1" as="geometry">
            <mxPoint x="480" y="890" as="sourcePoint" />
            <mxPoint x="530" y="840" as="targetPoint" />
          </mxGeometry>
        </mxCell>
        <mxCell id="EugOOFMT5J3IFzMl5P8F-23" value="" style="endArrow=none;html=1;rounded=0;exitX=0.5;exitY=0;exitDx=0;exitDy=0;entryX=0.5;entryY=1;entryDx=0;entryDy=0;startArrow=oval;startFill=0;" edge="1" parent="1" source="EugOOFMT5J3IFzMl5P8F-19" target="ZjNwS_tGUqbS9NZz3Lka-4">
          <mxGeometry width="50" height="50" relative="1" as="geometry">
            <mxPoint x="371" y="875" as="sourcePoint" />
            <mxPoint x="416" y="845" as="targetPoint" />
          </mxGeometry>
        </mxCell>
        <mxCell id="EugOOFMT5J3IFzMl5P8F-24" value="" style="endArrow=none;html=1;rounded=0;exitX=1;exitY=0.5;exitDx=0;exitDy=0;entryX=0;entryY=1;entryDx=0;entryDy=0;startArrow=oval;startFill=0;" edge="1" parent="1" source="EugOOFMT5J3IFzMl5P8F-18" target="ZjNwS_tGUqbS9NZz3Lka-4">
          <mxGeometry width="50" height="50" relative="1" as="geometry">
            <mxPoint x="381" y="885" as="sourcePoint" />
            <mxPoint x="426" y="855" as="targetPoint" />
          </mxGeometry>
        </mxCell>
        <mxCell id="EugOOFMT5J3IFzMl5P8F-25" value="" style="endArrow=none;html=1;rounded=0;exitX=1;exitY=0.5;exitDx=0;exitDy=0;entryX=0;entryY=0;entryDx=0;entryDy=0;startArrow=oval;startFill=0;" edge="1" parent="1" source="EugOOFMT5J3IFzMl5P8F-17" target="ZjNwS_tGUqbS9NZz3Lka-4">
          <mxGeometry width="50" height="50" relative="1" as="geometry">
            <mxPoint x="391" y="895" as="sourcePoint" />
            <mxPoint x="436" y="865" as="targetPoint" />
          </mxGeometry>
        </mxCell>
        <mxCell id="EugOOFMT5J3IFzMl5P8F-26" value="" style="endArrow=none;html=1;rounded=0;entryX=0.5;entryY=1;entryDx=0;entryDy=0;exitX=0.5;exitY=0;exitDx=0;exitDy=0;" edge="1" parent="1" source="EugOOFMT5J3IFzMl5P8F-27" target="fmxYldBwVqD4av5W19d3-3">
          <mxGeometry width="50" height="50" relative="1" as="geometry">
            <mxPoint x="170" y="780" as="sourcePoint" />
            <mxPoint x="183" y="627.5" as="targetPoint" />
          </mxGeometry>
        </mxCell>
        <mxCell id="EugOOFMT5J3IFzMl5P8F-27" value="" style="rhombus;whiteSpace=wrap;html=1;" vertex="1" parent="1">
          <mxGeometry x="153" y="800" width="34" height="40" as="geometry" />
        </mxCell>
        <mxCell id="EugOOFMT5J3IFzMl5P8F-28" value="" style="endArrow=none;html=1;rounded=0;exitX=1;exitY=0.5;exitDx=0;exitDy=0;entryX=0;entryY=0.5;entryDx=0;entryDy=0;" edge="1" parent="1" source="EugOOFMT5J3IFzMl5P8F-27" target="ZjNwS_tGUqbS9NZz3Lka-4">
          <mxGeometry width="50" height="50" relative="1" as="geometry">
            <mxPoint x="480" y="740" as="sourcePoint" />
            <mxPoint x="300" y="890" as="targetPoint" />
          </mxGeometry>
        </mxCell>
        <mxCell id="EugOOFMT5J3IFzMl5P8F-31" value="1,1" style="text;html=1;strokeColor=none;fillColor=none;align=center;verticalAlign=middle;whiteSpace=wrap;rounded=0;" vertex="1" parent="1">
          <mxGeometry x="183" y="545" width="60" height="30" as="geometry" />
        </mxCell>
        <mxCell id="EugOOFMT5J3IFzMl5P8F-32" value="1,n" style="text;html=1;strokeColor=none;fillColor=none;align=center;verticalAlign=middle;whiteSpace=wrap;rounded=0;" vertex="1" parent="1">
          <mxGeometry x="370" y="1120" width="60" height="30" as="geometry" />
        </mxCell>
        <mxCell id="EugOOFMT5J3IFzMl5P8F-33" value="&lt;div&gt;cod_receb&lt;/div&gt;" style="text;html=1;strokeColor=none;fillColor=none;align=center;verticalAlign=middle;whiteSpace=wrap;rounded=0;" vertex="1" parent="1">
          <mxGeometry x="562" y="602.5" width="68" height="30" as="geometry" />
        </mxCell>
        <mxCell id="EugOOFMT5J3IFzMl5P8F-34" value="" style="endArrow=oval;html=1;rounded=0;entryX=0;entryY=0.5;entryDx=0;entryDy=0;exitX=1;exitY=0.5;exitDx=0;exitDy=0;endFill=1;" edge="1" parent="1" source="ZjNwS_tGUqbS9NZz3Lka-5" target="EugOOFMT5J3IFzMl5P8F-33">
          <mxGeometry width="50" height="50" relative="1" as="geometry">
            <mxPoint x="480" y="730" as="sourcePoint" />
            <mxPoint x="530" y="680" as="targetPoint" />
          </mxGeometry>
        </mxCell>
        <mxCell id="EugOOFMT5J3IFzMl5P8F-35" value="1,n" style="text;html=1;strokeColor=none;fillColor=none;align=center;verticalAlign=middle;whiteSpace=wrap;rounded=0;" vertex="1" parent="1">
          <mxGeometry x="359" y="791" width="60" height="30" as="geometry" />
        </mxCell>
      </root>
    </mxGraphModel>
  </diagram>
</mxfile>
